<?xml version="1.0" encoding="UTF-8"?>
<svg width="46px" height="46px" viewBox="0 0 46 46" version="1.1" xmlns="http://www.w3.org/2000/svg" xmlns:xlink="http://www.w3.org/1999/xlink">
    <title>Path</title>
    <g id="Page-1" stroke="none" stroke-width="1" fill="none" fill-rule="evenodd">
        <g id="global-ui-111302-crescent-moon-phase" transform="translate(0.578730, -0.000575)" fill="#000000" fill-rule="nonzero">
            <path d="M28.7762697,33.8365755 C21.0852697,32.8595755 14.9402697,26.5885755 14.1022697,18.8795755 C13.3312697,11.7875755 16.9292697,5.46157547 22.5382697,2.23757547 C23.6282697,1.61157547 23.1772697,-0.0584245306 21.9212697,0.00157546943 C20.5152697,0.0685754694 19.0802697,0.270575469 17.6242697,0.623575469 C7.92626974,2.98257547 0.707269741,11.4595755 0.0512697406,21.4195755 C-0.830730259,34.8285755 9.78226974,45.9765755 23.0002697,45.9765755 C33.0782697,45.9765755 41.6392697,39.4955755 44.7482697,30.4725755 C45.1622697,29.2695755 43.6862697,28.3605755 42.7692697,29.2425755 C39.2252697,32.6445755 34.2132697,34.5265755 28.7762697,33.8365755 Z" id="Path"></path>
        </g>
    </g>
</svg>